<?xml version="1.0" encoding="utf-8"?>
<!-- Generator: Adobe Illustrator 23.0.5, SVG Export Plug-In . SVG Version: 6.00 Build 0)  -->
<svg version="1.1" id="Layer_1" xmlns="http://www.w3.org/2000/svg" xmlns:xlink="http://www.w3.org/1999/xlink" x="0px" y="0px"
	 viewBox="0 0 2000 2000" style="enable-background:new 0 0 2000 2000;" xml:space="preserve">
<style type="text/css">
	.st0{fill:#FFFFFF;}
</style>
<g>
	<path class="st0" d="M899.11,1049.13l115.19-460.62h-0.07c-67.66,0-126.63,46.05-143.04,111.68l-86.68,346.79l-0.52,2.15h2.99
		H899.11z"/>
	<polygon class="st0" points="1073.74,818.82 1073.94,818.82 1030.68,691.15 942.55,1049.13 	"/>
	<polygon class="st0" points="1131.43,818.82 1057.09,588.51 1055.92,588.51 1042.2,644.32 1101.45,818.82 	"/>
	<path class="st0" d="M1037.19,1128.87l-456.45,130.6l0,0c33.83,58.6,103.2,86.65,168.25,68.03l343.69-98.34l2.15-0.59l-1.5-2.6
		L1037.19,1128.87z"/>
	<polygon class="st0" points="736.57,1068.84 721.61,1042.82 559.27,1222.4 559.92,1223.44 615.01,1207.44 	"/>
	<polygon class="st0" points="1015.53,1091.28 750.42,1092.84 750.3,1092.64 661.38,1193.97 	"/>
	<path class="st0" d="M1096.44,871.24l-1.63-1.56l-1.5,2.6l-56.13,97.17l341.4,330.01l0.01-0.02
		c33.82-58.59,23.44-132.67-25.19-179.7L1096.44,871.24z"/>
	<polygon class="st0" points="1281.48,1262.27 1015.53,1006.98 1149.38,1235.8 1149.25,1235.99 	"/>
	<polygon class="st0" points="1135.53,1259.79 1120.5,1285.75 1357.19,1336.54 1357.77,1335.5 1316.41,1295.83 	"/>
</g>
</svg>
